<?xml version="1.0" encoding="utf-8"?>
<!-- Generator: Adobe Illustrator 26.5.0, SVG Export Plug-In . SVG Version: 6.00 Build 0)  -->
<svg version="1.1" xmlns="http://www.w3.org/2000/svg" xmlns:xlink="http://www.w3.org/1999/xlink" x="0px" y="0px"
	 viewBox="0 0 448 512" style="enable-background:new 0 0 448 512;" xml:space="preserve">
<style type="text/css">
	.st0{fill:#FFFFFF;stroke:#000000;stroke-width:5;stroke-miterlimit:10;}
	.st1{font-family:'MyriadPro-Bold';}
	.st2{font-size:60px;}
	.st3{letter-spacing:21.1;}
	.st4{font-family:'MyriadPro-Regular';}
	.st5{fill:none;stroke:#000000;stroke-width:27.52;stroke-linecap:round;stroke-linejoin:round;stroke-miterlimit:1.5;}
</style>
<g id="Calque_1" focusable="false">
	<g>
		<path d="M268.2,95c-60.9,0-110.3,54.7-110.3,122.1s49.4,122.1,110.3,122.1V95z"/>
		<path class="st0" d="M289.8,126c-45.4,0-82.3,40.8-82.3,91.1s36.8,91.1,82.3,91.1V126z"/>
	</g>
	<g>
		<text transform="matrix(0.9974 0 0 1 11.156 426.7693)"><tspan x="0" y="0" class="st1 st2 st3">DORAN</tspan><tspan x="308.2" y="0" class="st4 st2 st3">CO</tspan></text>
	</g>
</g>
<g id="Calque_2">
	<g id="logo-noir">
		<path class="st5" d="M609.6,315c-1.8-0.8-3.5-1.7-5.3-2.5 M609.6,315c12.6,5.7,26.4,9.4,41,10.7 M604.3,224.2v12.7 M604.3,143.9
			v57 M604.3,128.2v-1.6c0-2.5,1.4-4.7,3.6-5.7c16.2-7.6,34.5-11.9,53.9-11.9c65.3,0,118.3,48.6,118.3,108.6s-53,108.6-118.3,108.6
			c-3.8,0-7.5-0.2-11.2-0.5 M604.3,143.9v-3.1 M604.3,128.2v12.6 M678.7,227.3c-0.4,1.3-0.9,2.5-1.5,3.8c-1.5,3.5-5,5.8-8.8,5.8
			c-10.7,0-32.1,0-32.1,0 M681.2,218.1c-0.4,2.1-0.9,4.1-1.5,6.1 M678.7,227.3c0.4-1,0.7-2,1-3.1 M604.3,224.2v-23.4 M604.3,236.9
			h32.1"/>
	</g>
	<text transform="matrix(0.9974 0 0 1 468.5296 427)" class="st1" style="font-size:61px;">DL.Webdesigner</text>
</g>
<g id="Calque_3">
	<text transform="matrix(1 0 0 1 939.2461 334.481)" class="st4" style="font-size:350px;">1D</text>
	<text transform="matrix(1 0 0 1 976.5015 426.7693)" class="st1 st2" style="letter-spacing:24;">1DTouch</text>
</g>
<g id="Calque_4">
	<text transform="matrix(1 0 0 1 1396.152 335.4233)" class="st4" style="font-size:350px;">OC</text>
	<text transform="matrix(1 0 0 1 1405.7747 426.769)" class="st1 st2">Openclassrooms</text>
</g>
</svg>
