<?xml version="1.0" encoding="utf-8"?>
<!-- Generator: Adobe Illustrator 26.5.0, SVG Export Plug-In . SVG Version: 6.00 Build 0)  -->
<svg version="1.1" id="Layer_1" xmlns="http://www.w3.org/2000/svg" xmlns:xlink="http://www.w3.org/1999/xlink" x="0px" y="0px"
	 viewBox="0 0 512 512" style="enable-background:new 0 0 512 512;" xml:space="preserve">
<style type="text/css">
	.st0{fill-rule:evenodd;clip-rule:evenodd;fill:url(#SVGID_1_);}
</style>
<g transform="matrix(1.57781,0,0,1.44764,-145.518,-102.99)">
	<g id="logo-couelur">
		
			<linearGradient id="SVGID_1_" gradientUnits="userSpaceOnUse" x1="183.037" y1="336.4027" x2="185.4778" y2="336.4027" gradientTransform="matrix(152.9954 0 0 -188.9211 -27867.6738 63801.5625)">
			<stop  offset="0" style="stop-color:#352868"/>
			<stop  offset="8.000000e-02" style="stop-color:#4E2069"/>
			<stop  offset="0.17" style="stop-color:#67186A"/>
			<stop  offset="0.41" style="stop-color:#72146A"/>
			<stop  offset="1" style="stop-color:#A23890"/>
		</linearGradient>
		<path class="st0" d="M121.7,114.6v161.8c0,7.3,4.6,13.5,10.8,15.2l0.7,0.2l0.7,0.1l0.7,0.1l0.7,0.1l0.7,0h43.2c0,0,28.8,0,43.2,0
			c10.9,0,20.8-7.1,25.1-18.1c0.8-2.1,1.6-4.3,2.3-6.5v0l0.8-2.6l0.8-2.7v0c0.9-3.5,1.7-7,2.3-10.6c1.5-8.5-3.7-16.8-11.6-18.3
			c-7.8-1.6-15.4,4.1-16.8,12.6c-0.4,2.5-1,5-1.6,7.4v0c-0.3,1.3-0.7,2.5-1.1,3.7l0,0c-0.4,1.2-0.8,2.4-1.3,3.6l-42.1,0h-28.8v-142
			c19-9.1,40.4-14.3,63-14.3c79.6,0,144.8,63.9,144.8,143.5c0,79.6-65.2,143.5-144.8,143.5c-4.7,0-9.3-0.2-13.9-0.7
			c-18-1.7-35-6.7-50.5-14.3l0,0c-2.2-1.1-4.3-2.2-6.5-3.4c-7.1-4-15.8-0.9-19.4,6.8c-3.6,7.7-0.8,17.2,6.3,21.2
			c2.5,1.4,5.1,2.8,7.7,4l0,0c18.4,9.1,38.6,15,59.9,17h0c5.4,0.5,10.8,0.8,16.4,0.8c96.2,0,173.7-78.8,173.7-175S309.8,73,213.6,73
			c-28.3,0-55.1,6.8-78.7,19c0,0,0,0-0.1,0C126.8,96.1,121.7,104.9,121.7,114.6z"/>
	</g>
</g>
</svg>
