<?xml version="1.0" encoding="UTF-8"?>
<svg xmlns="http://www.w3.org/2000/svg" viewBox="0 0 321 458.57">
  <g id="Calque_1" data-name="Calque 1" focusable="false">
    <path d="M126.28,33.96c-11.04,23.55-17.37,55.05-17.37,86.41v204.69c-4.7,3.55-8.58,7.58-11.46,11.98V189.16C75.77,294.38,0,301.37,0,389.78H0s91.71,0,91.71,0v11.46H0c0,18.99,20.53,34.39,45.86,34.39h45.86c0,16.62,7.19,22.93,17.2,22.93h28.66c10.02,0,17.2-6.32,17.2-22.93h11.46c0,16.62,7.19,22.93,17.2,22.93h28.66c10.02,0,17.2-6.32,17.2-22.93h45.86c25.33,0,45.86-15.4,45.86-34.39h-91.71v-11.46h91.71c0-88.42-75.77-95.41-97.45-200.62v147.88c-2.88-4.4-6.77-8.43-11.46-11.98V120.37c0-31.37-6.33-62.86-17.37-86.41C184.75,12.7,171.96,0,160.5,0s-24.25,12.7-34.22,33.96Zm62.88,74.95c0,3.17-2.57,5.73-5.73,5.73h-45.86c-3.17,0-5.73-2.57-5.73-5.73,0-22.86,57.32-22.89,57.32,0Z"/>
  </g>
</svg>